<svg version="1.2" xmlns="http://www.w3.org/2000/svg" viewBox="0 0 2044 2324" width="2044" height="2324">
	<title>ada-svg</title>
	<style>
		.s0 { fill: #15304f } 
		.s1 { fill: #2a62a1 } 
		.s2 { fill: #5f96d3 } 
		.s3 { opacity: .9;fill: #ffffff } 
	</style>
	<g id="mascot">
		<path id="path988" class="s0" d="m1249.3 828.4c0 0 8.8-98.1 202.5-104.9 163.4 9.7 277.8 167.9 316.7 218.5 0 0-141.6 93.8-287.4-69.1-168.2-150.9-231.8-44.5-231.8-44.5z"/>
		<path id="path990" class="s1" d="m1249.3 828.4c0 0 8.8-98.1 202.5-104.9 163.4 9.7 277.8 167.9 316.7 218.5 0 0-141.6 93.8-287.4-69.1-168.2-150.9-231.8-44.5-231.8-44.5z"/>
		<path id="path992" class="s0" d="m1247.4 881.5c0 0-16.5 71.9 79.6 127.4 67 38.8 29.3 49.4 29.3 49.4 0 0 31.1 5.7 83.4-41.9 74.3-67.6 36.5-121.2 36.5-121.2 0 0-78.3-111-148.5-25.9 0 0-22.3 26-80.3 12.2z"/>
		<path id="path994" class="s2" d="m1247.4 881.5c0 0-16.5 71.9 79.6 127.4 67 38.8 29.3 49.4 29.3 49.4 0 0 31.1 5.7 83.4-41.9 74.3-67.6 36.5-121.2 36.5-121.2 0 0-78.3-111-148.5-25.9 0 0-22.3 26-80.3 12.2z"/>
		<path id="path996" class="s0" d="m1503.8 916.2c0 0 10.4 106.6-136.3 151.7 0 0 150.3-56.9 314.3 83.2 0 0 17.1-128.5 95.2-194.4-8.9 2.5-130.9 83-273.2-40.5z"/>
		<path id="path998" class="s1" d="m1503.8 916.2c0 0 10.4 106.6-136.3 151.7 0 0 150.3-56.9 314.3 83.2 0 0 17.1-128.5 95.2-194.4-8.9 2.5-130.9 83-273.2-40.5z"/>
		<path id="path1000" class="s0" d="m1257.1 859.8c0 0 48.9 46.9 93.7-43.3 0 0-55.6-38.8-93.7 43.3z"/>
		<path id="path1002" class="s0" d="m1257.1 859.8c0 0 48.9 46.9 93.7-43.3 0 0-55.6-38.8-93.7 43.3z"/>
		<path id="eye" class="s3" d="m1297.2 840.5c1.8 6.1-1.1 12.3-6.5 13.9-5.4 1.5-11.2-2.2-13.1-8.3-1.8-6.1 1.1-12.3 6.5-13.9 5.4-1.5 11.3 2.2 13.1 8.3z"/>
		<path id="path1005" class="s0" d="m2003.4 1406c9.6-207.4 6.1-362.2-136.3-458.2-183-208.4-398.1-492.3-352.9-836.2 32.7-248.5 50.7-4.9 50.7-4.9 0 0 40.4 354.4 173.8 468.2 339.6 299.9 340 464.4 264.7 831.1z"/>
		<path id="path1007" class="s0" d="m2003.4 1406c9.6-207.4 6.1-362.2-136.3-458.2-183-208.4-398.1-492.3-352.9-836.2 32.7-248.5 50.7-4.9 50.7-4.9 0 0 40.4 354.4 173.8 468.2 339.6 299.9 340 464.4 264.7 831.1z"/>
		<path id="path1009" class="s0" d="m1450.3 291.9c0 0 48.9 240 179 388.9 136.7 156.5 102.8 121.9 217.3 265.2 0 0-12.8-11.5-51.5 0.2 0 0-104.6-158.4-207.9-206.6 0 0-129.5-132.7-149.7-275.7-32.8-232-2.9-259.7 12.8-172z"/>
		<path id="path1011" class="s0" d="m1450.3 291.9c0 0 48.9 240 179 388.9 136.7 156.5 102.8 121.9 217.3 265.2 0 0-12.8-11.5-51.5 0.2 0 0-104.6-158.4-207.9-206.6 0 0-129.5-132.7-149.7-275.7-32.8-232-2.9-259.7 12.8-172z"/>
		<path id="path1013" class="s0" d="m1561.3 725.8c0 0-116.6-130.8-127.9-166.9-20-63.7-27.5-82-34-27.3-3.5 30.3 18.5 170.3 80 176.7 40.8 4.2 81.9 17.5 81.9 17.5z"/>
		<path id="path1015" class="s0" d="m1561.3 725.8c0 0-116.6-130.8-127.9-166.9-20-63.7-27.5-82-34-27.3-3.5 30.3 18.5 170.3 80 176.7 40.8 4.2 81.9 17.5 81.9 17.5z"/>
		<path id="path1017" class="s0" d="m0.8 522.5c-7.6 100.9 32.3 274.2 87.5 347.3 108.2 221.4 408.3 482.8 822.2 404 128.6-36.7 240.6 23.1 320.9 91.6 77.2 78.7 104.3 92.2 157.2 61-54.8-53.1-113.6-115.2-112.3-197 3.8-59.4 25.5-117.7 63.6-149.4-37.6-132.1-248.5-138.5-342.5-129-121.7 8.2-243.9 71-352.6 83-301.8-24.8-520.6-232.5-591.7-552.3-30.1-147.3-44.8-60-52.3 40.8z"/>
		<path id="path1019" class="s0" d="m0.8 522.5c-7.6 100.9 32.3 274.2 87.5 347.3 108.2 221.4 408.3 482.8 822.2 404 128.6-36.7 240.6 23.1 320.9 91.6 77.2 78.7 104.3 92.2 157.2 61-54.8-53.1-113.6-115.2-112.3-197 3.8-59.4 25.5-117.7 63.6-149.4-37.6-132.1-248.5-138.5-342.5-129-121.7 8.2-243.9 71-352.6 83-301.8-24.8-520.6-232.5-591.7-552.3-30.1-147.3-44.8-60-52.3 40.8z"/>
		<path id="path1021" class="s0" d="m276.3 1209.5c213.3 126.9 427.3 168.6 603.7 103.2 0 0 161.1-97.9 386.8 107.8 0 0-253.4 134.6-495.5 125.7-87.7-3.2-362.2-60.8-541.1-243.7-162.4-166.2-165-339.7-92.1-229.7 71.9 108.3 138.2 136.7 138.2 136.7z"/>
		<path id="path1023" class="s0" d="m276.3 1209.5c213.3 126.9 427.3 168.6 603.7 103.2 0 0 161.1-97.9 386.8 107.8 0 0-253.4 134.6-495.5 125.7-87.7-3.2-362.2-60.8-541.1-243.7-162.4-166.2-165-339.7-92.1-229.7 71.9 108.3 138.2 136.7 138.2 136.7z"/>
		<path id="path1025" class="s0" d="m649.6 1582.5c311.2 29.4 496.8-77.2 632.1-140.2 22.7 161.9-247.3 283.6-440 266.2-128.8-6.3-309.1-34.6-421.1-151.3-10.8-11.2-84.8-105.5 33.5-32.7 76.6 36.4 131.2 45.1 195.5 58z"/>
		<path id="path1027" class="s0" d="m649.6 1582.5c311.2 29.4 496.8-77.2 632.1-140.2 22.7 161.9-247.3 283.6-440 266.2-128.8-6.3-309.1-34.6-421.1-151.3-10.8-11.2-84.8-105.5 33.5-32.7 76.6 36.4 131.2 45.1 195.5 58z"/>
		<path id="path1029" class="s0" d="m1316.5 1454.1c58.7 118.7 106.4 144 270.2 215.5 99.8 45.7 132.6 71.9 109.3 113.5 0 0 124.1-66.4 182.1-153.7 0 0-314.6-55.8-478-195.2-41.4 34.1-83.6 19.9-83.6 19.9z"/>
		<path id="path1031" class="s0" d="m1316.5 1454.1c58.7 118.7 106.4 144 270.2 215.5 99.8 45.7 132.6 71.9 109.3 113.5 0 0 124.1-66.4 182.1-153.7 0 0-314.6-55.8-478-195.2-41.4 34.1-83.6 19.9-83.6 19.9z"/>
		<path id="path1033" class="s0" d="m1303.9 1465.9c0 0 5.1 138.8-192.7 230-142.4 65.6 36.8 40.9 128.2-3.5 94-45.7 114.4-109.9 101-162.6-10.3-40.2-26.1-52.8-36.5-63.9z"/>
		<path id="path1035" class="s0" d="m1303.9 1465.9c0 0 5.1 138.8-192.7 230-142.4 65.6 36.8 40.9 128.2-3.5 94-45.7 114.4-109.9 101-162.6-10.3-40.2-26.1-52.8-36.5-63.9z"/>
		<path id="path1037" class="s0" d="m2000.3 1419.5c0 0-57.3 160.8-110 205.5 0 0 33.7 8 45.7 79.5 34.3-84 64.3-285 64.3-285z"/>
		<path id="path1039" class="s0" d="m2000.3 1419.5c0 0-57.3 160.8-110 205.5 0 0 33.7 8 45.7 79.5 34.3-84 64.3-285 64.3-285z"/>
		<path id="path1041" class="s0" d="m1885.5 1644.8c0 0 56.1 192.1-199.7 404.6-112.4 93.4-229 138.5-363.4 165.4 0 0-266.2 43.7-327.1-144.8 0 0 54.6 32.3 196.3 22.6 398.9-27.1 658.3-247 693.9-447.8z"/>
		<path id="path1043" class="s1" d="m1885.5 1644.8c0 0 56.1 192.1-199.7 404.6-112.4 93.4-229 138.5-363.4 165.4 0 0-266.2 43.7-327.1-144.8 0 0 54.6 32.3 196.3 22.6 398.9-27.1 658.3-247 693.9-447.8z"/>
		<path id="path1045" class="s0" d="m1142.2 1973.4c0 0 35.4 85.4 148.2 83.6 195-3 511.6-175.9 569.9-383.8 0 0-163.9 194.7-462.7 264.6-194 45.4-255.4 35.6-255.4 35.6z"/>
		<path id="path1047" class="s0" d="m1142.2 1973.4c0 0 35.4 85.4 148.2 83.6 195-3 511.6-175.9 569.9-383.8 0 0-163.9 194.7-462.7 264.6-194 45.4-255.4 35.6-255.4 35.6z"/>
		<path id="path1049" class="s0" d="m1905.5 1654.2c63 61.3 45.9 533.8-422.4 653.8 0 0-186.9 59.7-328.7-51.3 186.5 23.2 462.5-98.6 572.5-210.8 122.3-124.9 196.3-253.1 178.6-391.7z"/>
		<path id="path1051" class="s2" d="m1905.5 1654.2c63 61.3 45.9 533.8-422.4 653.8 0 0-186.9 59.7-328.7-51.3 186.5 23.2 462.5-98.6 572.5-210.8 122.3-124.9 196.3-253.1 178.6-391.7z"/>
		<path id="path1053" class="s0" d="m633 875.9c233.5-97.3 438.7-95.4 610.6-46.9 0 0-7.5 16.5-22.6 12.9-5.3-1.3 1.6 11.2 24.6 37.7-175.1-70.8-384.2-58.1-612.6-3.7z"/>
		<path id="beak" class="s1" d="m633 875.9c233.5-97.3 438.7-95.4 610.6-46.9 0 0-7.5 16.5-22.6 12.9-5.3-1.3 1.6 11.2 24.6 37.7-175.1-70.8-384.2-58.1-612.6-3.7z"/>
		<path id="path1056" class="s0" d="m1676.4 1166.6c0 0-37.7-36.9-97.7-64.2-30-13.6-68.5-26.9-104.6-27.7-44.3-1-83.5-7.7-129.8 28.2-150.2 184.4 45.2 410.1 514.2 504-49.8-4.3-590.5-542.3-182.1-440.3z"/>
		<path id="path1060" class="s0" d="m1691.7 1159.4c0 0 6.1-44 28.8-97.8 22.7-53.8 64.3-113.6 125.5-100.6 91.8 35.9 183.7 188 134.3 467.6-25.2 89.1-86.2 173-86.2 173 10.9 2-13.8-816.7-202.4-442.2z"/>
		<path id="path1064" class="s0" d="m1696 1187.9c-167.6-61.3-229.7 75.8 191.2 431.4-8.9-196.2-44.7-728.2-191.2-431.4z"/>
	</g>
</svg>