<svg version="1.2" xmlns="http://www.w3.org/2000/svg" viewBox="0 0 42 42" width="42" height="42">
	<title>c-svg</title>
	<defs>
		<linearGradient id="g1" x2="1" gradientUnits="userSpaceOnUse" gradientTransform="matrix(9.353,25.697,-27.426,9.982,19.48,16.823)">
			<stop offset="0" stop-color="#3940a4"/>
			<stop offset="1" stop-color="#293091"/>
		</linearGradient>
		<linearGradient id="g2" x2="1" gradientUnits="userSpaceOnUse" gradientTransform="matrix(10.257,28.18,-51.164,18.623,13.43,.382)">
			<stop offset="0" stop-color="#7b83eb"/>
			<stop offset="1" stop-color="#5961c3"/>
		</linearGradient>
		<linearGradient id="g3" x2="1" gradientUnits="userSpaceOnUse" gradientTransform="matrix(8.703,23.912,-25.721,9.361,28.031,9.865)">
			<stop offset="0" stop-color="#5c65d6"/>
			<stop offset=".999" stop-color="#464eb0"/>
		</linearGradient>
	</defs>
	<style>
		.s0 { fill: url(#g1) } 
		.s1 { fill: url(#g2) } 
		.s2 { fill: #ffffff } 
		.s3 { fill: url(#g3) } 
		.s4 { opacity: .1;fill: #000000 } 
	</style>
	<path id="Layer" fill-rule="evenodd" class="s0" d="m19.9 0.3c0.7-0.4 1.5-0.4 2.2 0 3.4 1.9 13.4 7.5 16.8 9.4 0.7 0.4 1.1 1.1 1.1 1.9 0 3.7 0 15.1 0 18.8 0 0.8-0.4 1.5-1.1 1.9-3.4 1.9-13.4 7.5-16.8 9.4-0.7 0.4-1.5 0.4-2.2 0-3.4-1.9-13.4-7.5-16.8-9.4-0.7-0.4-1.1-1.1-1.1-1.9 0-3.7 0-15.1 0-18.8 0-0.8 0.4-1.5 1.1-1.9 3.4-1.9 13.4-7.5 16.8-9.4z"/>
	<path id="Layer" fill-rule="evenodd" class="s1" d="m2.3 31.4c-0.3-0.4-0.3-0.7-0.3-1.1 0-3.8 0-15.1 0-18.8 0-0.8 0.4-1.5 1.1-1.8 3.3-1.9 13.4-7.5 16.7-9.4 0.7-0.4 1.6-0.4 2.3 0 3.4 1.9 13.4 7.4 16.7 9.3q0.4 0.2 0.7 0.6z"/>
	<path id="Layer" fill-rule="evenodd" class="s2" d="m21 7c7.7 0 14 6.3 14 14 0 7.7-6.3 14-14 14-7.7 0-14-6.3-14-14 0-7.7 6.3-14 14-14zm-7 14c0 3.9 3.1 7 7 7 3.9 0 7-3.1 7-7 0-3.9-3.1-7-7-7-3.9 0-7 3.1-7 7z"/>
	<path id="Layer" fill-rule="evenodd" class="s3" d="m39.5 10.2c0.5 0.5 0.5 1.2 0.5 1.8 0 3.8 0 14.6 0 18.4 0 0.4-0.1 0.8-0.3 1.1l-19.1-10.5z"/>
	<path id="Layer" fill-rule="evenodd" class="s4" d="m33.9 13.4l0.5 0.9-0.9 0.5-6 3.4-0.9 0.5-0.5-0.8c-1.1-1.8-3-2.9-5.1-2.9-3.3 0-6 2.7-6 6 0 3.3 2.7 6 6 6 2.1 0 4.1-1.1 5.2-3l0.5-0.8 0.8 0.5 6.1 3.3 0.9 0.5-0.5 0.9c-2.6 4.7-7.6 7.6-13 7.6-8.3 0-15-6.7-15-15 0-8.3 6.7-15 15-15 5.3 0 10.2 2.8 12.9 7.4zm-26.9 7.6c0 7.7 6.3 14 14 14 5.2 0 9.8-2.9 12.2-7.1l-6.2-3.4c-1.2 2.1-3.4 3.5-6 3.5-3.9 0-7-3.1-7-7 0-3.9 3.1-7 7-7 2.5 0 4.7 1.3 6 3.4l6-3.5c-2.4-4.1-6.9-6.9-12-6.9-7.7 0-14 6.3-14 14z"/>
	<path id="Layer" fill-rule="evenodd" class="s4" d="m33.5 13.6l0.2 0.5-0.4 0.2-6.1 3.5-0.4 0.2-0.3-0.4c-1.2-1.9-3.2-3.1-5.5-3.1-3.6 0-6.5 2.9-6.5 6.5 0 3.6 2.9 6.5 6.5 6.5 2.3 0 4.4-1.2 5.6-3.2l0.2-0.4 0.5 0.2 6.1 3.4 0.4 0.2-0.2 0.5c-2.6 4.5-7.4 7.3-12.6 7.3-8 0-14.5-6.5-14.5-14.5 0-8 6.5-14.5 14.5-14.5 5.1 0 9.9 2.7 12.5 7.1zm-26.5 7.4c0 7.7 6.3 14 14 14 5.2 0 9.8-2.9 12.2-7.1l-6.2-3.4c-1.2 2.1-3.4 3.5-6 3.5-3.9 0-7-3.1-7-7 0-3.9 3.1-7 7-7 2.5 0 4.7 1.3 6 3.4l6-3.5c-2.4-4.1-6.9-6.9-12-6.9-7.7 0-14 6.3-14 14z"/>
</svg>