<svg version="1.2" xmlns="http://www.w3.org/2000/svg" viewBox="0 0 44 48" width="44" height="48">
	<title>discord-svg</title>
	<defs>
		<radialGradient id="g1" cx="0" cy="0" r="1" gradientUnits="userSpaceOnUse" gradientTransform="matrix(32.252,0,0,32.252,22,10.009)">
			<stop offset="0" stop-color="#8c9eff"/>
			<stop offset=".368" stop-color="#889af8"/>
			<stop offset=".889" stop-color="#7e8fe6"/>
			<stop offset="1" stop-color="#7b8ce1"/>
		</radialGradient>
	</defs>
	<style>
		.s0 { fill: url(#g1) } 
		.s1 { opacity: .1;fill: #000000 } 
		.s2 { fill: #ffffff } 
	</style>
	<path id="Layer" class="s0" d="m38.1 12.2q-0.1-0.2-0.2-0.3c-0.8-0.6-4.7-3.3-9.7-3.9q0 0-0.1 0-0.1 0-0.2 0.2l-0.2 0.5q-0.1 0-0.1 0.1 0 0.2 0.2 0.2c0 0 0 0.1 0.1 0.1 4.2 1 6.8 2.8 9.1 4.9-4-2.1-8-4-15-4-7 0-11 1.9-15 4 2.3-2.1 4.9-3.9 9.1-4.9 0.1 0 0.1-0.1 0.1-0.1q0.2 0 0.2-0.2 0-0.1-0.1-0.1l-0.2-0.5q-0.1-0.2-0.2-0.2-0.1 0-0.1 0c-5 0.6-8.9 3.3-9.7 3.9q-0.1 0.1-0.2 0.3c-0.7 1.1-5.1 8.3-5.9 21.6q0 0.2 0.1 0.4c4.6 5.1 11.2 5.7 12.6 5.8q0.3 0 0.5-0.2l1.2-1.7c0.1-0.1 0.1-0.3-0.1-0.4-2.7-1-5.7-2.7-8.3-5.7 3.2 2.5 8.1 5 16 5 7.9 0 12.8-2.5 16-5-2.6 3-5.6 4.7-8.3 5.7-0.2 0.1-0.2 0.3-0.1 0.4l1.2 1.7q0.2 0.2 0.5 0.2c1.4-0.1 8-0.7 12.6-5.8q0.1-0.2 0.1-0.4c-0.8-13.3-5.2-20.5-5.9-21.6z"/>
	<path id="Layer" class="s1" d="m28.5 31c-2.5 0-4.5-2.2-4.5-5 0-2.8 2-5 4.5-5 2.5 0 4.5 2.2 4.5 5 0 2.8-2 5-4.5 5z"/>
	<path id="Layer" class="s1" d="m28.5 30.5c-2.2 0-4-2-4-4.5 0-2.5 1.8-4.5 4-4.5 2.2 0 4 2 4 4.5 0 2.5-1.8 4.5-4 4.5z"/>
	<path id="Layer" class="s2" d="m28.5 30c-1.9 0-3.5-1.8-3.5-4 0-2.2 1.6-4 3.5-4 1.9 0 3.5 1.8 3.5 4 0 2.2-1.6 4-3.5 4z"/>
	<path id="Layer" class="s1" d="m15.5 31c-2.5 0-4.5-2.2-4.5-5 0-2.8 2-5 4.5-5 2.5 0 4.5 2.2 4.5 5 0 2.8-2 5-4.5 5z"/>
	<path id="Layer" class="s1" d="m15.5 30.5c-2.2 0-4-2-4-4.5 0-2.5 1.8-4.5 4-4.5 2.2 0 4 2 4 4.5 0 2.5-1.8 4.5-4 4.5z"/>
	<path id="Layer" class="s2" d="m15.5 30c-1.9 0-3.5-1.8-3.5-4 0-2.2 1.6-4 3.5-4 1.9 0 3.5 1.8 3.5 4 0 2.2-1.6 4-3.5 4z"/>
</svg>