<svg version="1.2" xmlns="http://www.w3.org/2000/svg" viewBox="0 0 30 40" width="30" height="40">
	<title>java-svg</title>
	<defs>
		<linearGradient id="g1" x2="1" gradientUnits="userSpaceOnUse" gradientTransform="matrix(8.06,22.144,-39.04,14.21,13.677,17.174)">
			<stop offset="0" stop-color="#5c65d6"/>
			<stop offset=".999" stop-color="#464eb0"/>
		</linearGradient>
		<linearGradient id="g2" x2="1" gradientUnits="userSpaceOnUse" gradientTransform="matrix(7.798,21.426,-45.531,16.571,10.498,18.77)">
			<stop offset="0" stop-color="#5c65d6"/>
			<stop offset=".999" stop-color="#464eb0"/>
		</linearGradient>
		<linearGradient id="g3" x2="1" gradientUnits="userSpaceOnUse" gradientTransform="matrix(7.892,21.685,-46.08,16.77,9.698,19.455)">
			<stop offset="0" stop-color="#5c65d6"/>
			<stop offset=".999" stop-color="#464eb0"/>
		</linearGradient>
		<linearGradient id="g4" x2="1" gradientUnits="userSpaceOnUse" gradientTransform="matrix(7.831,21.514,-47.892,17.432,9.03,20.198)">
			<stop offset="0" stop-color="#5c65d6"/>
			<stop offset=".999" stop-color="#464eb0"/>
		</linearGradient>
		<linearGradient id="g5" x2="1" gradientUnits="userSpaceOnUse" gradientTransform="matrix(7.503,20.615,-63.014,22.934,11.725,20.582)">
			<stop offset="0" stop-color="#5c65d6"/>
			<stop offset=".999" stop-color="#464eb0"/>
		</linearGradient>
	</defs>
	<style>
		.s0 { fill: #d43a02 } 
		.s1 { fill: url(#g1) } 
		.s2 { fill: url(#g2) } 
		.s3 { fill: url(#g3) } 
		.s4 { fill: url(#g4) } 
		.s5 { fill: url(#g5) } 
	</style>
	<path id="Layer" class="s0" d="m14.6 20.9c-0.9-1.6-1.7-2.9-2.7-5.5-1.7-4.2 10.3-8 5.5-15.4 2.1 5.1-7.6 8.2-8.5 12.5-0.8 3.9 5.7 8.4 5.7 8.4z"/>
	<path id="Layer" class="s0" d="m14.9 13.3c-0.2 2.5 2.2 3.8 2.3 5.7 0 1.5-1.5 2.7-1.5 2.7 0 0 2.8-0.5 3.6-2.8 1-2.5-1.8-4.3-1.5-6.3 0.2-1.9 6-5.6 6-5.6 0 0-8.5 0.6-8.9 6.3z"/>
	<path id="Layer" class="s1" d="m23.1 21.1c1.7-0.4 3.2 0.7 3.2 2 0 2.9-4 5.6-4 5.6 0 0 6.2-0.7 6.2-5.5 0-3.1-3-3.9-5.4-2.1zm-3 2.3c0 0 2-1.4 2.5-1.9-4.8 1-15.7 1.1-15.7 0.3 0-0.8 3.6-1.7 3.6-1.7 0 0-7.8-0.1-7.8 2.2 0 2.4 10.2 2.6 17.4 1.1z"/>
	<path id="Layer" class="s2" d="m18.9 25.6c-4.5 1.5-12.8 1-10.3-1-1.2 0-3 0.9-3 1.9 0 1.8 9 3.3 15.6 0.5z"/>
	<path id="Layer" class="s3" d="m9.7 28.7c-1.6 0-2.7 1.1-2.7 1.9 0 2.4 9.8 2.6 13.6 0.2l-2.4-1.7c-2.9 1.3-10.2 1.5-8.5-0.4z"/>
	<path id="Layer" class="s4" d="m27.3 32.6c0-0.9-1.1-1.3-1.5-1.6 2.3 5.4-22.3 5-22.3 1.8 0-0.7 1.8-1.4 3.5-1.1l-1.4-0.8c-3.3-0.5-5.6 0.9-5.6 2.1 0 5.5 27.3 5.3 27.3-0.4z"/>
	<path id="Layer" class="s5" d="m30 34.6c-4.1 4.1-14.7 5.6-25.2 3.1 10.5 4.5 25.2 1.9 25.2-3.1z"/>
</svg>