<svg version="1.2" xmlns="http://www.w3.org/2000/svg" viewBox="0 0 36 36" width="36" height="36">
	<title>javascript-svg</title>
	<style>
		.s0 { fill: #ffd600 } 
		.s1 { fill: #000001 } 
	</style>
	<path id="Layer" class="s0" d="m0 36v-36h36v36z"/>
	<path id="Layer" class="s1" d="m23.5 26.9c0.7 1.2 1.5 2.2 3.1 2.2 1.3 0 2-0.6 2-1.5 0-1.1-0.7-1.5-2.2-2.2l-0.8-0.3c-2.3-1-3.9-2.2-3.9-4.9 0-2.4 1.9-4.2 4.8-4.2 2 0 3.5 0.7 4.6 2.6l-2.6 1.6c-0.5-1-1.1-1.4-2-1.4-1 0-1.6 0.6-1.6 1.4 0 0.9 0.6 1.3 2 1.9l0.8 0.4c2.8 1.1 4.3 2.3 4.3 5 0 2.9-2.3 4.5-5.4 4.5-2.9 0-4.7-1.5-5.6-3.4zm-11.6 0.1c0.5 0.9 1.3 1.6 2.4 1.6 1.1 0 1.7-0.4 1.7-2v-10.6h3.3v11.1c0 3.4-2 4.9-4.8 4.9-2.6 0-4.4-1.8-5.2-3.4z"/>
</svg>