<svg version="1.2" xmlns="http://www.w3.org/2000/svg" viewBox="0 0 94 90" width="94" height="90">
	<title>jquery-svg</title>
	<style>
		.s0 { fill: #131b28 } 
		.s1 { fill: #0868ac } 
	</style>
	<path id="Layer" class="s0" d="m223.9 36.2l-3.4 11.8c0 0 3.4-11.8 3.4-11.8z"/>
	<path id="Layer" class="s0" d="m241.1 62l-3.7-0.1z"/>
	<path id="Layer" class="s0" d="m240.2 79.7l-22.1 0.1c0 0 22.1-0.1 22.1-0.1z"/>
	<path id="Layer" class="s0" d="m244.8 62h-3.7z"/>
	<path id="Layer" class="s0" d="m242.1 78.2l3.9-14.7-3.9 14.7q0 0 0 0z"/>
	<path id="Layer" class="s0" d="m323.6 10.5l-7.2 33.8z"/>
	<path id="Layer" class="s0" d="m305.1 10.5l-5.4 25.2 5.4-25.2z"/>
	<path id="Layer" class="s0" d="m322.4 9h-15.4c-0.8 0-1.7 0.7-1.9 1.5l-5.4 25.2-5.5 25.2c-0.1 0.9-1 1.5-1.8 1.5h-9.4-1.5c-10.8 0-9.5-7.4-7.3-17.6q0-0.1 0.1-0.3l0.2-1.3q0-0.1 0-0.2l0.5-2.6 0.6-2.8c0.1-0.9 0.4-2.1 0.5-2.9l2.5-12.1 2.5-12.1c0.1-0.8-0.4-1.5-1.3-1.5h-15.7c-0.9 0-1.7 0.7-1.9 1.5l-3.4 16.1-3.4 16q0 0.1 0 0.1l-0.3 1.5c-3.9 17.8-2.9 34.8 18.4 35.3 0.3 0 0.6 0 0.6 0h33.3c0.8 0 1.7-0.7 1.8-1.5l7.2-33.7 7.2-33.8c0.2-0.8-0.4-1.5-1.2-1.5z"/>
	<path id="Layer" class="s0" d="m383.6 62.6c0.9 0 1.5 0.7 1.3 1.5l-1.5 7.3"/>
	<path id="Layer" class="s0" d="m381.9 78.7l1.5-7.3-1.5 7.3q0 0 0 0z"/>
	<path id="Layer" class="s0" d="m380 80.3q0 0 0 0c-4.5 0-18.1 0.1-28.3 0.1 12.5 0 28.3-0.1 28.3-0.1z"/>
	<path id="Layer" class="s0" d="m342.6 53.2c0-0.8 0.9-2.1 1.7-2.1l-1.9-0.1c-0.9 8.7 0.2 2.2 0.2 2.2z"/>
	<path id="Layer" class="s0" d="m353.1 80.4q-0.1 0-0.3 0 0.2 0 0.3 0z"/>
	<path id="Layer" class="s0" d="m383.6 62.6c0.9 0 1.5 0.7 1.3 1.5l-1.5 7.3-0.3 1.2"/>
	<path id="Layer" class="s0" d="m360.4 80.4h-0.1z"/>
	<path id="Layer" class="s0" d="m356.6 80.4h-0.2z"/>
	<path id="Layer" class="s0" d="m355.5 80.4q-0.2 0-0.4 0 0.2 0 0.4 0z"/>
	<path id="Layer" class="s0" d="m354.3 80.4h-0.3z"/>
	<path id="Layer" class="s0" d="m356.4 80.4q-0.5 0-0.9 0 0.4 0 0.9 0z"/>
	<path id="Layer" class="s0" d="m360.3 80.4q-1.8 0-3.7 0 1.9 0 3.7 0z"/>
	<path id="Layer" class="s0" d="m380 80.3c-3.3 0-11.4 0-19.6 0.1 8.1-0.1 16.3-0.1 19.6-0.1z"/>
	<path id="Layer" class="s0" d="m381.9 78.7l1.2-6.1-1.2 6.1q0 0 0 0z"/>
	<path id="Layer" class="s0" d="m355.1 80.4h-0.8z"/>
	<path id="Layer" class="s0" d="m352.8 80.4h-1.1z"/>
	<path id="Layer" class="s0" d="m354 80.4h-0.9z"/>
	<path id="Layer" class="s0" d="m129.4 53.4l2.3-10.6-2.7 12.1-2.6 12.3 2.3-10.8c0.2-0.8 0.5-2.2 0.7-3z"/>
	<path id="Layer" class="s0" d="m157.9 8.8h-16.9c-0.8 0-1.7 0.7-1.8 1.5l-1.6 7.1-1.6 7c-0.2 0.9 0.3 1.5 1.2 1.5h17c0.8 0 1.7-0.6 1.8-1.5l1.6-7 1.5-7.1c0.2-0.8-0.3-1.5-1.2-1.5z"/>
	<path id="Layer" class="s0" d="m154.2 32.3l-4.9 22.9z"/>
	<path id="Layer" class="s0" d="m105.3 108.1c0 0 8.5 0.1 13.9 0.1-4.2 0-10.9-0.1-14-0.1q0 0 0.1 0z"/>
	<path id="Layer" class="s0" d="m134.1 32.3l-2.4 10.5z"/>
	<path id="Layer" class="s0" d="m153 30.8h-17c-0.8 0-1.7 0.6-1.9 1.5l-2.4 10.5-2.3 10.6c-0.2 0.9-0.5 2.2-0.7 3l-2.3 10.8-2.3 10.8c-0.2 0.9-0.5 2.2-0.8 3 0 0-3.2 9.5-8.5 9.4q-0.4 0-0.7-0.1c-2.6 0-4.6 0-4.6 0-0.9 0-1.7 0.6-1.9 1.4l-1.8 7.5-1.7 7.4c-0.2 0.8 0.3 1.5 1.1 1.5 3.1 0 9.8 0.1 14 0.1 13.3 0 20.3-7.4 24.8-28.6l5.3-24.4 4.9-22.9c0.2-0.9-0.3-1.5-1.2-1.5z"/>
	<path id="Layer" class="s0" d="m394.5 79.5c-0.9 0-1.4-0.7-1.3-1.5l12.8-59.9"/>
	<path id="Layer" class="s0" d="m412.2 78l5.2-25.6z"/>
	<path id="Layer" class="s0" d="m393.4 78.8c-0.1-0.5 0-1.5 0.2-2.3l6-28.4-6.4 29.9c-0.1 0.8 0.4 1.5 1.3 1.5h1.5c-0.8 0-2.5-0.3-2.6-0.7z"/>
	<path id="Layer" class="s0" d="m411.2 79.2c-0.4 0.2-1.5 0.3-2.4 0.3h1.6c0.8 0 1.7-0.7 1.8-1.5l0.4-1.5c-0.2 0.8-0.9 2.5-1.4 2.7z"/>
	<path id="Layer" class="s0" d="m414.8 65.2l2.3-11.3q0 0.1 0 0.1c0 0-2.3 11.2-2.3 11.2z"/>
	<path id="Layer" class="s0" d="m465.3 22.1l0.7 2.9c0.2 0.9-0.4 1.5-1.2 1.5"/>
	<path id="Layer" class="s0" d="m412.6 76.5l2.2-11.3z"/>
	<path id="Layer" class="s0" d="m464.6 19.1l0.7 3z"/>
	<path id="Layer" class="s0" d="m417.1 53.9c0.2-0.8 0.5-2.1 0.6-3l2.5-11.4-2.8 12.9c0 0-0.3 1.5-0.3 1.5z"/>
	<path id="Layer" class="s0" d="m406.2 17.1c-0.1 0.8-0.3 1.9-0.5 2.5l-6.1 28.5 6.4-30c0 0 0.2-1 0.2-1z"/>
	<path id="Layer" class="s0" d="m466 25l-0.7-2.9-0.7-3-0.4-1.5c-1.4-5.3-5.4-8.4-14.2-8.4h-13.7l-12.6-0.1h-1.1-13.1c-0.9 0-1.7 0.7-1.9 1.6l-0.6 2.9-0.8 3.5-0.2 1-6.4 30-6 28.4c-0.2 0.8-0.3 1.8-0.2 2.3 0.1 0.4 1.8 0.7 2.6 0.7h12.8c0.9 0 2-0.1 2.4-0.3 0.5-0.2 1.2-1.9 1.4-2.7l2.2-11.3 2.3-11.2q0 0 0-0.1l0.3-1.5 2.8-12.9 2.4-11.4c0.2-0.9 1-1.5 1.9-1.5l40.3-0.1c0.8 0 1.4-0.6 1.2-1.5z"/>
	<path id="Layer" class="s0" d="m517.9-1.3c-0.9 0-2.3 0-3.1 0h-12.9c-0.9 0-2 0.6-2.5 1.3l-28.5 41.8c-0.5 0.7-1 0.6-1.2-0.2l-2.1-9.2c-0.2-0.9-1.1-1.5-1.9-1.5h-18.3c-0.9 0-1.4 0.6-1.2 1.4l8.2 28.8c0.3 0.8 0.3 2.2 0.1 3l-3.6 14c-0.2 0.8 0.3 1.5 1.2 1.5h18.1c0.8 0 1.7-0.7 1.9-1.5l3.6-14c0.2-0.8 0.8-2 1.3-2.7l46.3-61.5c0.6-0.7 0.3-1.2-0.6-1.2 0 0-4.8 0-4.8 0z"/>
	<path id="Layer" fill-rule="evenodd" class="s0" d="m388.9 49.5q0 0.2-0.1 0.4c-0.3 0.7-0.9 1.1-1.6 1.2q0 0-0.1 0h-44.3c-1.2 8.6 2 11.5 13.1 11.5h27.7c0.9 0 1.4 0.7 1.3 1.5l-1.5 7.3-0.3 1.2-1.2 6.1c-0.2 0.9-1 1.5-1.9 1.6-3.3 0-11.4 0-19.6 0.1h-0.1q-1.8 0-3.7 0h-0.2q-0.5 0-0.9 0-0.2 0-0.4 0h-2q-0.1 0-0.3 0h-1.1c-30.8 0-31.2-17.4-27.2-36.1 3.9-18.2 11-36.4 40.9-36.4 28.2 0 30.1 16.8 23.5 41.6zm-27.5-24.7c-8.5 0-13 3.9-15.2 9.8-0.1 0.3-0.2 0.4-0.2 0.4q0 0.1 0 0.1 0 0 0 0 0 0 0 0c-0.1 0.7 0.3 1.3 1.1 1.3h23.3c0.8 0 1.7-0.7 1.8-1.6 0.6-5.3-1.2-10-10.8-10z"/>
	<path id="Layer" fill-rule="evenodd" class="s0" d="m236.4 60.8c-0.1 0.7 0.3 1.1 1 1.1l3.7 0.1h3.7c0.9 0 1.4 0.7 1.2 1.5l-3.9 14.7c-0.2 0.8-1.1 1.5-1.9 1.5l-22.1 0.1-23.7 0.1c-30 0.1-36.6-20.7-31.6-44.5 5-23.7 18.1-45.4 48.3-45.4 30.4 0 38.2 22.8 35.6 38.5-1.9 11.7-10.2 32-10.2 32q-0.1 0.2-0.1 0.3zm-29.4-52.2c-13.3 1-19.7 10.9-23 26.8-3.2 15.5 0 26 13.5 26h17.7c0.9 0 1.8-0.7 2-1.5l3.3-11.9 3.4-11.8q0 0 0 0l0.4-1.5c4.4-14.7 0.8-27.4-17.3-26.1z"/>
	<path id="Layer" class="s0" d="m385.9 46.9c0 0.6-0.4 1-1 1-0.6 0-1-0.4-1-1 0-0.6 0.4-1 1-1 0.6 0 1 0.4 1 1z"/>
	<path id="Layer" class="s1" d="m6 20.5c-8.4 12-7.3 27.6-1 40.3q0.3 0.5 0.5 0.9 0.2 0.3 0.3 0.6 0.1 0.2 0.2 0.3 0.2 0.3 0.3 0.6 0.3 0.5 0.6 1 0.2 0.3 0.4 0.6 0.3 0.6 0.7 1.1 0.1 0.3 0.3 0.5 0.5 0.7 1 1.5 0 0 0 0 0.1 0.1 0.2 0.2 0.5 0.7 0.9 1.3 0.2 0.2 0.4 0.4 0.4 0.5 0.9 1.1 0.1 0.2 0.3 0.4 0.6 0.7 1.2 1.3 0 0 0 0.1 0 0 0.1 0 0.6 0.7 1.2 1.3 0.2 0.2 0.4 0.4 0.4 0.5 0.9 0.9 0.2 0.2 0.4 0.4 0.7 0.6 1.4 1.2 0 0 0 0.1 0.1 0.1 0.2 0.2 0.6 0.5 1.2 1 0.3 0.2 0.5 0.4 0.5 0.4 1 0.8 0.3 0.2 0.6 0.4 0.5 0.4 1.1 0.8 0.2 0.1 0.4 0.3 0.1 0 0.1 0.1 0.6 0.3 1.1 0.7 0.3 0.1 0.5 0.3 0.9 0.5 1.7 1.1 0.3 0.1 0.5 0.2 0.7 0.4 1.3 0.8 0.4 0.1 0.7 0.3 0.5 0.3 0.9 0.5 0.2 0.1 0.3 0.1 0.2 0.1 0.3 0.2 0.8 0.3 1.5 0.7 0.2 0 0.3 0.1 0.9 0.4 1.7 0.7 0.2 0.1 0.4 0.2 0.8 0.3 1.7 0.6 0.1 0 0.2 0 0.9 0.4 1.8 0.6 0.2 0.1 0.4 0.2c0.6 0.2 1.2 0.4 1.9 0.5 40.3 7.3 52-24.2 52-24.2-9.9 12.8-27.3 16.2-43.9 12.4-0.6-0.1-1.2-0.3-1.8-0.5q-0.2-0.1-0.5-0.2-0.9-0.2-1.7-0.5-0.2-0.1-0.3-0.1-0.8-0.3-1.6-0.6-0.2-0.1-0.4-0.2-0.8-0.3-1.7-0.7-0.2-0.1-0.3-0.1-0.7-0.4-1.5-0.7-0.2-0.1-0.4-0.2-0.5-0.3-1.1-0.6-0.3-0.1-0.7-0.3-0.7-0.4-1.3-0.8-0.3-0.1-0.5-0.2-0.8-0.5-1.7-1.1-0.2-0.1-0.5-0.3-0.6-0.4-1.2-0.8-0.2-0.2-0.4-0.3-0.6-0.4-1.1-0.8-0.3-0.2-0.6-0.4-0.5-0.4-1-0.8-0.2-0.2-0.5-0.4-0.6-0.5-1.3-1.1 0-0.1-0.1-0.1-0.7-0.6-1.4-1.3-0.2-0.2-0.4-0.3-0.5-0.5-1-1-0.1-0.2-0.3-0.4-0.7-0.6-1.2-1.3-0.1 0-0.1 0-0.6-0.7-1.2-1.4-0.2-0.2-0.4-0.4-0.4-0.5-0.8-1.1-0.2-0.2-0.4-0.4-0.5-0.7-1-1.4c-9.2-12.5-12.5-29.8-5.1-43.9"/>
	<path id="Layer" class="s1" d="m31.9 10.4c-6.1 8.7-5.7 20.3-1 29.5q1.1 2.3 2.6 4.4c0.9 1.3 1.9 2.9 3.1 3.9q0.7 0.7 1.4 1.4 0.2 0.2 0.3 0.4 0.7 0.6 1.4 1.2 0 0.1 0.1 0.1 0 0 0 0 0.8 0.7 1.6 1.3 0.2 0.2 0.4 0.3 0.8 0.7 1.7 1.3 0 0 0 0 0.4 0.3 0.8 0.5 0.2 0.1 0.3 0.2 0.7 0.4 1.3 0.8 0.1 0.1 0.2 0.1 0.5 0.3 1.1 0.6 0.2 0.1 0.4 0.2 0.3 0.2 0.7 0.4 0.1 0.1 0.2 0.1 0.7 0.4 1.6 0.7 0.1 0.1 0.3 0.2 0.7 0.3 1.3 0.5 0.3 0.1 0.6 0.2 0.6 0.3 1.2 0.5 0.3 0 0.6 0.1c0.6 0.2 1.1 0.4 1.7 0.5 31.2 5.2 38.3-18.8 38.3-18.8-6.4 9.4-19 13.8-32.4 10.3q-0.9-0.2-1.7-0.5-0.3-0.1-0.6-0.1-0.6-0.2-1.2-0.5-0.3-0.1-0.5-0.2-0.7-0.2-1.4-0.5-0.2-0.1-0.3-0.2-0.9-0.3-1.7-0.7-0.4-0.2-0.8-0.4-0.2-0.2-0.4-0.3-0.6-0.3-1.1-0.6-0.1 0-0.2-0.1-0.6-0.4-1.3-0.8-0.2-0.1-0.3-0.2-0.4-0.3-0.8-0.5-0.9-0.6-1.7-1.3-0.2-0.1-0.4-0.3c-5.9-4.6-10.5-10.9-12.7-18.1-2.3-7.4-1.8-15.8 2.2-22.5"/>
	<path id="Layer" class="s1" d="m53.6 2.9c-3.5 5.2-3.9 11.7-1.4 17.5 2.6 6.1 7.9 10.9 14.1 13.2q0.4 0.1 0.8 0.3 0.2 0 0.3 0.1c0.4 0.1 0.8 0.2 1.1 0.3 17.2 3.3 21.9-8.8 23.1-10.6-4.1 5.9-10.9 7.3-19.3 5.2-0.7-0.1-1.4-0.4-2.1-0.6q-1.2-0.4-2.4-1-2.2-1.1-4.2-2.6c-7.6-5.7-12.2-16.6-7.3-25.5"/>
	<path id="Layer" class="s1" d="m247.2 104.7l-5 11.3h-5.5l0.5-10.2-4 10.2h-5.3l-0.2-11.3 0.6-2.8h3.8l-0.8 11.2 4.2-11.2h5.2l-0.4 11.3 4.2-11.3h3.2c0 0-0.5 2.8-0.5 2.8z"/>
	<path id="Layer" class="s1" d="m255.8 108.1c0.5-2.2 0.3-2.6-0.8-2.6h-1.7l-1.1 5.1-1.7 5.4h-3.2l2.6-12.2 0.4-1.8h2.9l0.4 0.8c0 0 1.7-1 3.3-1 3.5 0 3.3 2.7 2.5 6.3 0 0-3.6 0-3.6 0z"/>
	<path id="Layer" class="s1" d="m266.2 100.2c-1.4 0-2.3-0.4-2-2.1 0.4-1.8 1.5-2.2 2.9-2.2 1.4 0 2.3 0.4 1.9 2.2-0.3 1.6-1.4 2.1-2.8 2.1zm-1.5 15.8h-3.2l0.6-5.5 1.1-5.1-2.2-0.5 0.6-3h6.1c0 0-3 14.1-3 14.1z"/>
	<path id="Layer" class="s1" d="m278.4 104.9l-4 0.5-1.1 5.4c-0.3 1.5-0.3 1.9 1 1.9h2.6l-0.5 2.8c0 0-2.4 0.7-3.4 0.7-4.1 0-4.1-2.2-3.3-5.6l1.1-5.2-2.2-0.5 0.6-3h2.3l1.3-3.5h3.1l-0.7 3.5h3.8c0 0-0.6 3-0.6 3z"/>
	<path id="Layer" fill-rule="evenodd" class="s1" d="m282.9 110.3c-0.2 1.8 0.4 2.3 2.6 2.3h5.5l-0.5 2.7c0 0-3.3 0.9-5.8 0.9-6.2 0-6.2-3.5-5.5-7.2 0.8-3.7 2.2-7.3 8.2-7.3 5.7 0 6 3.5 4.6 8.6 0 0-9.1 0-9.1 0zm3.7-5.2c-1.8 0-2.8 1-3.2 2.7l5.3-0.5c0.2-1.1 0-2.2-2.1-2.2z"/>
	<path id="Layer" class="s1" d="m304.6 116h-3.1l0.6-5.5 2.2-10.4-2.2-0.6 0.7-3h6c0 0-4.2 19.5-4.2 19.5z"/>
	<path id="Layer" fill-rule="evenodd" class="s1" d="m312.3 110.3c-0.2 1.8 0.5 2.3 2.7 2.3h5.5l-0.6 2.7c0 0-3.3 0.9-5.8 0.9-6.1 0-6.2-3.5-5.4-7.2 0.8-3.7 2.2-7.3 8.1-7.3 5.8 0 6.1 3.5 4.7 8.6 0 0-9.2 0-9.2 0zm3.8-5.2c-1.9 0-2.9 1-3.2 2.7l5.3-0.5c0.2-1.1 0-2.2-2.1-2.2z"/>
	<path id="Layer" class="s1" d="m336 105.3c0 0-4.1 0-5.2 0-2.3 0-2.5 0.7-2.7 1.5l-0.1 0.7 7.4 0.5c0 0 0 2.4-0.3 3.7-0.4 2.3-2.7 4.5-6.9 4.5-2.1 0-5.4-0.7-5.4-0.7l0.6-2.8h5.1c2.3 0 2.6-0.6 2.7-1.2l0.2-0.9-7.3-0.5c0 0-0.3-1.9 0.1-3.7 0.6-2.5 2.8-4.6 7-4.6 2.1 0 5.4 0.8 5.4 0.8 0 0-0.6 2.7-0.6 2.7z"/>
	<path id="Layer" class="s1" d="m349.8 105.3c0 0-4 0-5.1 0-2.4 0-2.6 0.7-2.8 1.5l-0.1 0.7 7.4 0.5c0 0 0.1 2.4-0.3 3.7-0.4 2.3-2.7 4.5-6.9 4.5-2 0-5.4-0.7-5.4-0.7l0.6-2.8h5.1c2.3 0 2.6-0.6 2.8-1.2l0.1-0.9-7.3-0.5c0 0-0.2-1.9 0.1-3.7 0.6-2.5 2.9-4.6 7-4.6 2.1 0 5.4 0.8 5.4 0.8 0 0-0.6 2.7-0.6 2.7z"/>
	<path id="Layer" class="s1" d="m354.1 118.3h-2.7l0.1-2.1c-1-0.1-1.5-0.8-1.3-2 0.4-1.7 1.5-2.1 2.9-2.1 1.3 0 2.3 0.4 1.9 2.1 0 0-0.9 4.1-0.9 4.1z"/>
	<path id="Layer" fill-rule="evenodd" class="s1" d="m377.2 114.2l-0.3 1.8h-2.9l-0.4-0.9c0 0-2.6 1.1-4.3 1.1-4.4 0-4.6-3.6-3.8-7.3 0.8-3.7 2.5-7.2 6.9-7.2 1.5 0 3.7 0.8 3.7 0.8l1.7-6h3.2c0 0-3.8 17.7-3.8 17.7zm-4.7-8.8c-2 0-2.8 1.3-3.2 3.5-0.5 2.3-0.4 3.6 1.7 3.6h2.8l1.6-7.1z"/>
	<path id="Layer" fill-rule="evenodd" class="s1" d="m386.3 116.2c-5.7 0-6.1-3.5-5.4-7.2 0.8-3.7 2.8-7.2 8.5-7.2 5.6 0 6.1 3.5 5.4 7.2-0.8 3.7-2.8 7.2-8.5 7.2zm2.3-10.9c-2.7 0-3.5 1.5-4 3.7-0.4 2.2-0.2 3.7 2.4 3.7 2.8 0 3.6-1.4 4.1-3.7 0.5-2.1 0.3-3.7-2.5-3.7z"/>
	<path id="Layer" class="s1" d="m418.5 116l0.6-5.4 0.3-1.6c0.5-2 0.7-3.5-1.4-3.5h-1.7c0.1 1-0.1 2.2-0.4 3.5l-1.5 7h-3.2l0.6-5.4 0.3-1.6c0.5-2 0.7-3.5-1.4-3.5h-1.4l-2.3 10.5h-3.6l2.9-14.1h2.9l0.5 0.9c0 0 1.9-1 3.5-1 1.2 0 2.1 0.5 2.4 1.2 0.7-0.4 2.7-1.2 4.1-1.2 4.4 0 4.3 3.5 3.5 7.2l-1.5 7c0 0-3.2 0-3.2 0z"/>
	<path id="Layer" fill-rule="evenodd" class="s1" d="m430.8 116.2c-5.7 0-6.2-3.5-5.4-7.2 0.8-3.7 2.8-7.2 8.5-7.2 5.6 0 6.1 3.5 5.3 7.2-0.8 3.7-2.8 7.2-8.4 7.2zm2.3-10.9c-2.7 0-3.5 1.5-4 3.7-0.5 2.2-0.3 3.7 2.4 3.7 2.7 0 3.6-1.4 4.1-3.7 0.4-2.1 0.3-3.7-2.5-3.7z"/>
	<path id="Layer" class="s1" d="m448.8 108.1c0.5-2.2 0.3-2.6-0.8-2.6h-1.7l-1.1 5.1-1.7 5.4h-3.2l2.6-12.2 0.4-1.8h2.9l0.4 0.8c0 0 1.7-1 3.3-1 3.5 0 3.3 2.7 2.5 6.3 0 0-3.6 0-3.6 0z"/>
	<path id="Layer" fill-rule="evenodd" class="s1" d="m457.4 110.3c-0.2 1.8 0.4 2.3 2.6 2.3h5.5l-0.5 2.7c0 0-3.3 0.9-5.8 0.9-6.2 0-6.2-3.5-5.5-7.2 0.8-3.7 2.3-7.3 8.2-7.3 5.7 0 6 3.5 4.6 8.6 0 0-9.1 0-9.1 0zm3.7-5.2c-1.8 0-2.8 1-3.2 2.7l5.3-0.5c0.3-1.1 0-2.2-2.1-2.2z"/>
	<path id="Layer" class="s1" d="m469.6 116.2c-1.4 0-2.3-0.4-2-2.1 0.4-1.7 1.4-2.1 2.9-2.1 1.3 0 2.3 0.4 1.9 2.1-0.4 1.7-1.5 2.1-2.8 2.1z"/>
</svg>