<svg version="1.2" xmlns="http://www.w3.org/2000/svg" viewBox="0 0 62 54" width="62" height="54">
	<title>openweather-seeklogo</title>
	<defs>
		<clipPath clipPathUnits="userSpaceOnUse" id="cp1">
			<path d="m2 0.92h58.5v55h-58.5z"/>
		</clipPath>
	</defs>
	<style>
		.s0 { fill: #eb6d4a } 
	</style>
	<g id="Clip-Path" clip-path="url(#cp1)">
		<g id="Layer">
			<path id="Layer" class="s0" d="m54.7 31.1c-0.6-0.1-1.3 0-2 0-2.7 0-2.7 0-2.7-2.8 0.1-3.3-0.4-6.5-1.7-9.5-1.2-2.9-3.1-5.6-5.5-7.8l-0.5-0.5c-2.4-2.2-5.4-3.8-8.5-4.7-3.2-0.9-6.5-1.1-9.7-0.6-3.3 0.5-6.4 1.7-9.1 3.5-2.8 1.9-5.1 4.3-6.8 7.1q-0.2 0.3-0.4 0.6c-2.1 3.9-3.1 8.4-2.8 12.8 0.1 0.7 0.6 1.8-0.9 1.9-1.3 0.1-2.3 0.8-2.1 2.2 0.3 1.5 1.4 1.7 2.6 1.7 2-0.1 4 0 5.9 0 1.3 0 2.2 0.5 2.2 1.8 0 1.2-0.7 1.9-1.9 1.9-1.5 0-2.4 0.7-2.3 2.1 0.1 1.5 1.3 1.7 2.6 1.7q5.2-0.1 10.5 0c1.3 0 2.2 0.5 2.2 2-0.1 1.4-1 1.8-2.2 1.8q-3.3 0-6.5 0c-1.4 0-2.7 0.1-2.7 1.9 0 1.8 1.3 1.8 2.7 1.8q10.9 0 21.8 0 4.8 0 9.5 0c1.3 0 2.4-0.2 2.4-1.7 0.1-1.7-1.1-2-2.4-2q-0.9 0-1.6 0h-9.8c-1.2 0-2.1-0.5-2.1-1.9 0-1.3 0.8-1.9 2.1-1.9 0.4-0.1 0.8 0 1.2 0 1.2 0 2.4-0.2 2.5-1.7 0.1-1.7-1-2.1-2.4-2.1-1.2 0-2-0.8-2-1.9 0-1.2 0.9-1.9 2.2-1.9q1.2 0 2.4 0 7.9 0 15.8 0c1.3 0 2.3-0.4 2.3-1.9 0-1.4-1-1.9-2.3-1.9z"/>
			<path id="Layer" class="s0" d="m54 42.4c-1.1 0-1.9-0.8-1.9-1.8 0-1.1 0.8-1.9 1.9-1.9 1 0 1.8 0.8 1.8 1.9 0 1-0.8 1.8-1.8 1.8z"/>
			<path id="Layer" class="s0" d="m58.6 42.4c-1 0-1.8-0.8-1.8-1.8 0-1.1 0.8-1.9 1.8-1.9 1.1 0 1.9 0.8 1.9 1.9 0 1-0.8 1.8-1.9 1.8z"/>
			<path id="Layer" class="s0" d="m53.8 38.7h4.9v3.7h-4.9z"/>
			<path id="Layer" class="s0" d="m43 42.4c-1 0-1.8-0.8-1.8-1.8 0-1.1 0.8-1.9 1.8-1.9 1 0 1.9 0.8 1.9 1.9 0 1-0.9 1.8-1.9 1.8z"/>
			<path id="Layer" class="s0" d="m47.7 42.4c-1 0-1.9-0.8-1.9-1.8 0-1.1 0.9-1.9 1.9-1.9 1 0 1.9 0.8 1.9 1.9 0 1-0.9 1.8-1.9 1.8z"/>
			<path id="Layer" class="s0" d="m42.8 38.7h5v3.7h-5z"/>
		</g>
	</g>
</svg>