<svg version="1.2" xmlns="http://www.w3.org/2000/svg" viewBox="0 0 40 40" width="40" height="40">
	<title>python-svg</title>
	<style>
		.s0 { fill: #0277bd } 
		.s1 { fill: #ffc107 } 
	</style>
	<path id="Layer" fill-rule="evenodd" class="s0" d="m23.3 1.4c2.5 0.4 4.3 2.2 4.3 4.6v8.6c0 2.5-2.5 4.4-5 4.4h-7.3c-3.1 0-5.7 2.9-5.7 5.9v5.1h-3.7c-2.6 0-4-2-4.7-4.7-0.9-3.5-0.8-5.7 0-9.1 0.7-3 3-4.2 5.7-4.2h13.7v-2h-9v-4c0-2.6 0.7-4 4.5-4.6 1.3-0.3 2.4-0.4 3.9-0.4 1.6 0 3.4 0.4 3.3 0.4zm-9.7 5.1c0 0.8 0.6 1.5 1.5 1.5 0.8 0 1.5-0.7 1.5-1.5 0-0.8-0.7-1.5-1.5-1.5-0.9 0-1.5 0.7-1.5 1.5z"/>
	<path id="Layer" fill-rule="evenodd" class="s1" d="m15.8 38.6c-2.5-0.4-4.2-2.2-4.2-4.6v-8.6c0-2.5 2.4-4.4 5-4.4h7.2c3.1 0 5.8-2.9 5.8-5.9v-5.1h3.6c2.6 0 4.1 2 4.7 4.7 0.9 3.5 0.9 5.7 0 9.1-0.7 3-3 4.2-5.6 4.2h-13.7v2h9v4c0 2.6-0.7 4-4.6 4.6-1.3 0.3-2.4 0.4-3.9 0.4-1.6 0-3.4-0.4-3.3-0.4zm9.8-5.1c0-0.8-0.7-1.5-1.5-1.5-0.9 0-1.5 0.7-1.5 1.5 0 0.8 0.6 1.5 1.5 1.5 0.8 0 1.5-0.7 1.5-1.5z"/>
</svg>