<svg version="1.2" xmlns="http://www.w3.org/2000/svg" viewBox="0 0 220 246" width="220" height="246">
	<title>sqlite-svg</title>
	<defs>
		<linearGradient id="g1" x2="1" gradientUnits="userSpaceOnUse" gradientTransform="matrix(0,158.112,-149.744,0,98.963,19.905)">
			<stop offset="0" stop-color="#97d9f6"/>
			<stop offset=".92" stop-color="#0f80cc"/>
			<stop offset="1" stop-color="#0f80cc"/>
		</linearGradient>
	</defs>
	<style>
		.s0 { fill: #0f80cc } 
		.s1 { fill: url(#g1) } 
		.s2 { fill: #003b57 } 
	</style>
	<g id="g2993">
		<g id="g2998">
			<path id="path3005" class="s0" d="m119.9 190.6c-0.1-1.4-0.2-2.3-0.2-2.3 0 0-4.2-28.6-9.2-37.2-0.8-1.3 0-6.9 2.3-15.1 1.3 2.2 6.8 11.9 7.9 15 1.2 3.5 1.5 4.5 1.5 4.5 0 0-3-15.5-8-24.6 1.1-3.6 2.4-7.7 3.9-12 1.8 3.3 6.3 11.2 7.3 14q0.3 0.8 0.5 1.5 0.1-0.4 0.2-0.8c-1.1-4.8-3.4-13.2-6.4-19.4 6.7-35.2 29.8-82.3 53.5-103.3h-154.4c-10.3 0-18.8 8.5-18.8 18.8v170.3c0 10.3 8.5 18.8 18.8 18.8h101.7c-0.7-8.9-1-18.7-0.6-28.2z"/>
			<path id="path3035" class="s1" d="m112.8 136c1.3 2.2 6.8 11.9 7.9 15 1.2 3.5 1.5 4.5 1.5 4.5 0 0-3-15.5-8-24.6 1.1-3.6 2.4-7.7 3.9-12 1.7 3 5.6 9.9 7 13.2q0.1-1 0.2-1.9c-1.3-4.8-3.2-11.1-5.6-16 6.2-32.4 26.3-74.9 47.9-97.8h-148.8c-7.3 0-13.3 6-13.3 13.3v157.8c33.7-12.9 74.3-24.7 109.3-24.2-1.3-5-2.8-9.5-4.3-12.2-0.8-1.3 0-6.9 2.3-15.1z"/>
			<path id="path3045" class="s2" d="m209.2 5.3c-10.6-9.4-23.4-5.6-36 5.6q-2.8 2.5-5.6 5.5c-21.6 22.9-41.7 65.4-47.9 97.8 2.4 4.9 4.3 11.2 5.6 16 0.3 1.3 0.6 2.4 0.8 3.4 0.5 2.3 0.8 3.8 0.8 3.8 0 0-0.2-0.7-1-3q-0.2-0.7-0.5-1.5-0.1-0.4-0.3-0.8c-1.4-3.3-5.3-10.2-7-13.2-1.5 4.3-2.8 8.4-3.9 12 5 9.1 8 24.6 8 24.6 0 0-0.3-1-1.5-4.5-1.1-3.1-6.6-12.8-7.9-15-2.3 8.2-3.1 13.8-2.3 15.1 1.5 2.7 3 7.2 4.3 12.2 2.9 11.3 4.9 25 4.9 25 0 0 0.1 0.9 0.2 2.3-0.4 9.5-0.1 19.3 0.6 28.2 1 11.7 2.8 21.8 5.1 27.2l1.6-0.9c-3.4-10.6-4.8-24.5-4.2-40.6 0.9-24.6 6.6-54.2 17-85.1 17.7-46.7 42.2-84.1 64.6-102-20.4 18.5-48.1 78.2-56.4 100.3-9.2 24.8-15.8 48.1-19.8 70.3 6.9-20.8 29-29.8 29-29.8 0 0 10.8-13.4 23.4-32.5-7.5 1.8-20 4.7-24.2 6.5-6.1 2.6-7.8 3.4-7.8 3.4 0 0 20-12.1 37.1-17.6 23.5-37 49.1-89.6 23.3-112.7z"/>
		</g>
	</g>
</svg>